<svg width="536" height="536" viewBox="0 0 536 536" fill="none" xmlns="http://www.w3.org/2000/svg">
<g filter="url(#filter0_d_77_1975)">
<path fill-rule="evenodd" clip-rule="evenodd" d="M12 256C12 114.615 126.615 0 268 0C409.385 0 524 114.615 524 256V303.564C500.123 287.581 471.411 278.261 440.522 278.261C438.658 278.261 436.803 278.295 434.956 278.362V256C434.956 163.792 360.207 89.0434 268 89.0434C175.792 89.0434 101.043 163.792 101.043 256C101.043 348.207 175.792 422.956 268 422.956H290.362C290.295 424.803 290.261 426.658 290.261 428.522C290.261 459.411 299.581 488.123 315.564 512H268C126.615 512 12 397.385 12 256Z" fill="#0071BC"/>
<path fill-rule="evenodd" clip-rule="evenodd" d="M524 428.741C524 382.759 486.724 345.483 440.742 345.483C394.759 345.483 357.483 382.759 357.483 428.741C357.483 474.724 394.759 512 440.742 512H501.798C514.06 512 524 502.059 524 489.797V428.741Z" fill="#12ABDE"/>
</g>
<defs>
<filter id="filter0_d_77_1975" x="0" y="0" width="536" height="536" filterUnits="userSpaceOnUse" color-interpolation-filters="sRGB">
<feFlood flood-opacity="0" result="BackgroundImageFix"/>
<feColorMatrix in="SourceAlpha" type="matrix" values="0 0 0 0 0 0 0 0 0 0 0 0 0 0 0 0 0 0 127 0" result="hardAlpha"/>
<feOffset dy="12"/>
<feGaussianBlur stdDeviation="6"/>
<feComposite in2="hardAlpha" operator="out"/>
<feColorMatrix type="matrix" values="0 0 0 0 0 0 0 0 0 0 0 0 0 0 0 0 0 0 0.25 0"/>
<feBlend mode="normal" in2="BackgroundImageFix" result="effect1_dropShadow_77_1975"/>
<feBlend mode="normal" in="SourceGraphic" in2="effect1_dropShadow_77_1975" result="shape"/>
</filter>
</defs>
</svg>
